<svg width="99" height="58" viewBox="0 0 99 58" fill="none" xmlns="http://www.w3.org/2000/svg">
<g clip-path="url(#clip0_242_5808)">
<path d="M98.4991 42.3708L73.6465 27.4761V0L98.4991 14.8946V42.3708Z" fill="#C2C0FF"/>
<path d="M25.3511 56.8987L73.7023 27.4761V0L25.3511 29.4226V56.8987Z" fill="#0600CF"/>
<path d="M74.3809 57.1248L49.3872 42.2584L73.6474 27.4766L98.5001 42.3712L74.3809 57.1248Z" fill="#6863FF"/>
<path d="M25.3513 0L0.667969 14.6408L25.3513 29.4226V29.479L49.4705 14.7254L25.3513 0Z" fill="white"/>
<path d="M0.669257 14.6402L0.5 14.5273V42.0035L25.3526 56.8981V29.4784V29.422L0.669257 14.6402Z" fill="#DFDFDF"/>
<path d="M25.3513 0L0.667969 14.6408L25.3513 29.4226V29.479L49.4705 14.7254L25.3513 0Z" fill="white"/>
<path d="M0.669257 14.6402L0.5 14.5273V42.0035L25.3526 56.8981V29.4784V29.422L0.669257 14.6402Z" fill="#DFDFDF"/>
<path d="M25.3513 0L0.667969 14.6408L25.3513 29.4226V29.479L49.4705 14.7254L25.3513 0Z" fill="#C2C0FF"/>
<path d="M0.669257 14.6402L0.5 14.5273V42.0035L25.3526 56.8981V29.4784V29.422L0.669257 14.6402Z" fill="#6863FF"/>
</g>
<defs>
<clipPath id="clip0_242_5808">
<rect width="98" height="57.1243" fill="white" transform="translate(0.5)"/>
</clipPath>
</defs>
</svg>
