<svg width="60" height="57" viewBox="0 0 60 57" fill="none" xmlns="http://www.w3.org/2000/svg">
<g clip-path="url(#clip0_203_6164)">
<path d="M52.3899 22.481C56.5937 22.481 60.0015 19.0732 60.0015 14.8694C60.0015 10.6656 56.5937 7.25781 52.3899 7.25781C48.1861 7.25781 44.7783 10.6656 44.7783 14.8694C44.7783 19.0732 48.1861 22.481 52.3899 22.481Z" fill="black"/>
<path d="M53.4027 27.8931C45.7024 27.8931 39.4591 21.6499 39.4591 13.9496C39.4591 10.238 40.9105 6.8643 43.2816 4.36588C39.1378 1.74004 34.2684 0.161215 29.0167 0.0116418C13.4445 -0.431537 0.453844 11.8334 0.0106652 27.4056C-0.432514 42.9779 11.8325 55.9685 27.4047 56.4117C42.9769 56.8549 55.9676 44.5899 56.4107 29.0177C56.4273 28.5302 56.4273 28.0427 56.4107 27.5608C55.4413 27.7768 54.433 27.8931 53.3971 27.8931H53.4027Z" fill="black"/>
</g>
<defs>
<clipPath id="clip0_203_6164">
<rect width="60.0009" height="56.4222" fill="white"/>
</clipPath>
</defs>
</svg>
